# AST/ASF file generated using VICON BodyLanguage
# -----------------------------------------------
:version 1.10
:name VICON
:units
  mass 1.0
  length 0.45
  angle deg
:documentation
   .ast/.asf automatically generated from VICON data using
   VICON BodyBuilder and BodyLanguage model FoxedUp or BRILLIANT.MOD
:root
   order TX TY TZ RX RY RZ
   axis XYZ
   position 0 0 0  
   orientation 0 0 0 
:bonedata
  begin
     id 1 
     name lhipjoint
     direction 0.561145 -0.797705 0.220866 
     length 2.46425 
     axis 0 0 0  XYZ
  end
  begin
     id 2 
     name lfemur
     direction 0.34202 -0.939693 0  
     length 7.95556  
     axis 0 0 20  XYZ
    dof rx ry rz
    limits (-160.0 20.0)
           (-70.0 70.0)
           (-60.0 70.0)
  end
  begin
     id 3 
     name ltibia
     direction 0.34202 -0.939693 0   
     length 7.9832   
     axis 0 0 20   XYZ
    dof rx
    limits (-10.0 170.0)
  end
  begin
     id 4 
     name lfoot
     direction 0.0723927 -0.198897 0.977343   
     length 2.23085   
     axis -90 7.62852e-016 20   XYZ
    dof rx rz
    limits (-45.0 90.0)
           (-70.0 20.0)
  end
  begin
     id 5 
     name ltoes
     direction 1.53826e-011 -4.21988e-011 1   
     length 1.12127   
     axis -90 7.62852e-016 20   XYZ
    dof rx
    limits (-90.0 20.0)
  end
  begin
     id 6 
     name rhipjoint
     direction -0.610499 -0.763299 0.21134   
     length 2.57533  
     axis 0 0 0  XYZ 
  end
  begin
     id 7 
     name rfemur
     direction -0.34202 -0.939693 0   
     length 8.65257   
     axis 0 0 -20   XYZ
    dof rx ry rz
    limits (-160.0 20.0)
           (-70.0 70.0)
           (-70.0 60.0)
  end
  begin
     id 8 
     name rtibia
     direction -0.342021 -0.939692 0   
     length 7.37807   
     axis 0 0 -20   XYZ
    dof rx
    limits (-10.0 170.0)
 end
 begin
     id 9 
     name rfoot
     direction -0.0239304 -0.0543852 0.998233   
     length 1.87018  
     axis -90 -7.62852e-016 -20   XYZ
    dof rx rz
    limits (-45.0 90.0)
           (-20.0 70.0)
  end
  begin
     id 10 
     name rtoes
     direction -1.53584e-011 -4.2242e-011 1   
     length 0.951568   
     axis -90 -7.62852e-016 -20   XYZ
    dof rx
    limits (-90.0 20.0)
  end
  begin
     id 11 
     name lowerback
     direction 0.00322089 0.999033 0.0438587   
     length 2.07568   
     axis 0 0 0   XYZ
    dof rx ry rz
    limits (-20.0 45.0)
           (-30.0 30.0)
           (-30.0 30.0)
  end
  begin
     id 12 
     name upperback
     direction -0.00321932 0.999732 -0.0229403   
     length 2.06253   
     axis 0 0 0   XYZ
    dof rx ry rz
    limits (-20.0 45.0)
           (-30.0 30.0)
           (-30.0 30.0)
  end
  begin
     id 13 
     name thorax
     direction -0.00537537 0.998955 -0.0453918   
     length 2.06975   
     axis 0 0 0   XYZ
    dof rx ry rz
    limits (-20.0 45.0)
           (-30.0 30.0)
           (-30.0 30.0)
  end
  begin
     id 14 
     name lowerneck
     direction -0.00013604 0.994111 0.108363   
     length 1.50836   
     axis 0 0 0   XYZ
    dof rx ry rz
    limits (-20.0 45.0)
           (-30.0 30.0)
           (-30.0 30.0)
  end
  begin
     id 15 
     name upperneck
     direction 0.0397262 0.983859 -0.174482   
     length 1.53037   
     axis 0 0 0   XYZ
    dof rx ry rz
    limits (-20.0 45.0)
           (-30.0 30.0)
           (-30.0 30.0)
  end
  begin
     id 16
     name head
     direction 0.0109991 0.997082 -0.0755378  
     length 1.56928  
     axis 0 0 0   XYZ
    dof rx ry rz
    limits (-20.0 45.0)
           (-30.0 30.0)
           (-30.0 30.0)
  end
  begin
     id 17 
     name lclavicle
     direction 0.964749 0.254 -0.068874  
     length 3.26503  
     axis 0 0 0   XYZ
    dof ry rz
    limits (-20.0 10.0)
           (0.0 20.0)
  end
  begin
     id 18 
     name lhumerus
     direction 1 -4.48941e-011 -2.05079e-027   
     length 5.68236   
     axis 180 -30 -90   XYZ
    dof rx ry rz
    limits (-60.0 90.0)
           (-90.0 90.0)
           (-90.0 90.0)
  end
  begin
     id 19
     name lradius
     direction 1 -4.48956e-011 6.2882e-027   
     length 3.17112   
     axis 180 -30 -90   XYZ
    dof rx
    limits (-10.0 170.0)
  end
  begin
     id 20
     name lwrist
     direction 1 -4.49014e-011 1.73219e-026   
     length 1.58556   
     axis -1.04724e-014 90 90   XYZ
    dof ry
    limits (-180.0 0.0)
 end
  begin
     id 21 
     name lhand
     direction 1 -4.49312e-011 3.46438e-026   
     length 0.632691   
     axis -2.21057e-014 90 90   XYZ
    dof rx rz
    limits (-90.0 90.0)
           (-45.0 45.0)
  end
  begin
     id 22 
     name lfingers
     direction 1 -4.48894e-011 6.92876e-026   
     length 0.510091   
     axis -4.42114e-014 90 90   XYZ
    dof rx
    limits (0.0 90.0)
  end
  begin
     id 23
     name lthumb
     direction 0.707107 -6.34705e-011 0.707107   
     length 0.732392   
     axis -90 45 2.85299e-015   XYZ
    dof rx rz
    limits (-45.0 45.0)
           (-45.0 45.0)
  end
  begin
     id 24 
     name rclavicle
     direction -0.954374 0.280496 -0.102435   
     length 3.25419  
     axis 0 0 0   XYZ 
    dof ry rz
    limits (-10.0 20.0)
           (-20.0 0.0)
  end
  begin
     id 25 
     name rhumerus
     direction -1 -4.48994e-011 -1.07204e-017  
     length 5.8712   
     axis 180 30 90   XYZ
    dof rx ry rz
    limits (-90.0 60.0)
           (-90.0 90.0)
           (-90.0 90.0)
  end
  begin
     id 26 
     name rradius
     direction -1 -4.48972e-011 5.89292e-027   
     length 3.37589   
     axis 180 30 90   XYZ
    dof rx
    limits (-10.0 170.0)
  end
  begin
     id 27 
     name rwrist
     direction -1 -4.48942e-011 1.73219e-026   
     length 1.68794   
     axis -1.04724e-014 -90 -90   XYZ
    dof ry
    limits (-180.0 0.0)
  end
  begin
     id 28
     name rhand
     direction -1 -4.48514e-011 3.46438e-026   
     length 0.603257   
     axis -2.21057e-014 -90 -90   XYZ
    dof rx rz
    limits (-90.0 90.0)
           (-45.0 45.0)
  end
  begin
     id 29
     name rfingers
     direction -1 -4.50028e-011 6.92876e-026   
     length 0.486362   
     axis -4.42114e-014 -90 -90   XYZ
    dof rx
    limits (0.0 90.0)
  end
  begin
     id 30
     name rthumb
     direction -0.707107 -6.34926e-011 0.707107   
     length 0.698321   
     axis -90 -45 -2.85299e-015   XYZ
    dof rx rz
    limits (-45.0 45.0)
           (-45.0 45.0)
  end
:hierarchy
  begin
    root lhipjoint rhipjoint lowerback
    lhipjoint lfemur
    lfemur ltibia
    ltibia lfoot
    lfoot ltoes
    rhipjoint rfemur
    rfemur rtibia
    rtibia rfoot
    rfoot rtoes
    lowerback upperback
    upperback thorax
    thorax lowerneck lclavicle rclavicle
    lowerneck upperneck
    upperneck head
    lclavicle lhumerus
    lhumerus lradius
    lradius lwrist
    lwrist lhand lthumb
    lhand lfingers
    rclavicle rhumerus
    rhumerus rradius
    rradius rwrist
    rwrist rhand rthumb
    rhand rfingers
  end

#!OML:ASF I:\Segmentation\Patient Classification 1\Patient 1\Session 1\Patient1.ASF
:FULLY-SPECIFIED
:DEGREES
4495
root 15.7356 18.4527 14.0419 -166.129 72.8643 184.232
lowerback -7.07194 1.56925 2.71099
upperback 3.02793 1.73375 2.0327
thorax 7.16816 0.940896 0.841727
lowerneck -18.158 2.88509 4.36265
upperneck 12.6017 3.40283 -3.65433
head 6.9618 1.51832 -1.51615
rclavicle 4.45278e-014 -7.15625e-015
rhumerus -26.6707 -16.1013 -66.6056
rradius 26.2847
rwrist 22.5917
rhand -17.5561 25.6636
rfingers 7.12502
rthumb 8.69876 -4.13713
lclavicle 4.45278e-014 -7.15625e-015
lhumerus -30.4224 -4.17218 88.6734
lradius 32.7835
lwrist 10.2343
lhand -12.7462 33.1315
lfingers 7.12502
lthumb 13.3379 62.6846
rfemur -22.4284 4.53769 22.1591
rtibia 27.952
rfoot -1.07261 7.06664
rtoes 26.3768
lfemur -28.016 4.98402 -19.4521
ltibia 56.3207
lfoot -21.1502 11.8278
ltoes -6.44087
4496
root 15.8164 18.4408 14.0372 -166.263 72.6315 184.074
lowerback -7.08482 1.62178 2.75938
upperback 2.99528 1.80278 1.95697
thorax 7.14542 0.977859 0.74381
lowerneck -18.1053 2.89166 4.43408
upperneck 12.7841 3.40698 -3.68604
head 7.01446 1.5216 -1.53796
rclavicle 3.20043e-014 1.11319e-014
rhumerus -26.2434 -16.2551 -66.725
rradius 26.2487
rwrist 22.6394
rhand -17.6203 25.6814
rfingers 7.12502
rthumb 8.63675 -4.12188
lclavicle 3.20043e-014 1.11319e-014
lhumerus -30.5185 -4.16724 88.6266
lradius 33.1574
lwrist 10.3922
lhand -13.1646 33.0342
lfingers 7.12502
lthumb 12.9345 62.6133
rfemur -22.2944 4.66424 22.2059
rtibia 28.2978
rfoot -1.57683 7.24818
rtoes 26.5804
lfemur -28.6677 4.94546 -19.6804
ltibia 55.5422
lfoot -21.9664 11.627
ltoes -6.18075
4497
root 15.8979 18.4296 14.0327 -166.371 72.3773 183.943
lowerback -7.09937 1.66259 2.79052
upperback 2.96606 1.85669 1.90361
thorax 7.1261 1.00626 0.677214
lowerneck -18.1252 2.90031 4.44176
upperneck 13.0175 3.42322 -3.68472
head 7.09482 1.52977 -1.53666
rclavicle 5.64548e-014 2.38542e-015
rhumerus -25.8185 -16.281 -66.8735
rradius 26.3084
rwrist 22.5057
rhand -17.5717 25.6873
rfingers 7.12502
rthumb 8.6837 -4.11405
lclavicle 5.64548e-014 2.38542e-015
lhumerus -30.571 -4.14915 88.6056
lradius 33.4793
lwrist 10.5562
lhand -13.5378 32.9673
lfingers 7.12502
lthumb 12.5747 62.5689
rfemur -22.152 4.78864 22.2659
rtibia 28.6342
rfoot -2.11337 7.39927
rtoes 26.5887
lfemur -29.3176 4.91897 -19.9085
ltibia 54.6753
lfoot -22.5157 11.622
ltoes -6.77829
4498
root 15.9794 18.4187 14.027 -166.495 72.095 183.793
lowerback -7.11039 1.68116 2.81429
upperback 2.93705 1.88111 1.86339
thorax 7.10402 1.01962 0.624497
lowerneck -18.1941 2.91299 4.40716
upperneck 13.2869 3.4521 -3.66651
head 7.19484 1.5429 -1.52107
rclavicle -5.14852e-014 1.35174e-014
rhumerus -25.3918 -16.1913 -67.0507
rradius 26.4599
rwrist 22.274
rhand -17.4877 25.6973
rfingers 7.12502
rthumb 8.76476 -4.1007
lclavicle -5.14852e-014 1.35174e-014
lhumerus -30.5887 -4.09513 88.5981
lradius 33.7524
lwrist 10.723
lhand -13.8422 32.9524
lfingers 7.12502
lthumb 12.2813 62.5718
rfemur -22.0029 4.8312 22.3321
rtibia 28.9504
rfoot -2.60506 7.55959
rtoes 26.5167
lfemur -29.9553 4.8727 -20.148
ltibia 53.7252
lfoot -22.8477 11.6866
ltoes -7.53622
4499
root 16.0603 18.4082 14.0195 -166.635 71.7834 183.631
lowerback -7.10769 1.67286 2.83883
upperback 2.90686 1.86949 1.83833
thorax 7.07182 1.01507 0.581947
lowerneck -18.2555 2.93315 4.35444
upperneck 13.5414 3.4988 -3.66324
head 7.28961 1.56233 -1.50537
rclavicle 4.19436e-014 3.18055e-015
rhumerus -24.9625 -15.9572 -67.2557
rradius 26.6966
rwrist 21.9515
rhand -17.482 25.7204
rfingers 7.12502
rthumb 8.77019 -4.07743
lclavicle 4.19436e-014 3.18055e-015
lhumerus -30.5906 -4.0052 88.608
lradius 33.9919
lwrist 10.8916
lhand -14.0815 32.9785
lfingers 7.12502
lthumb 12.0505 62.6116
rfemur -21.8395 4.74535 22.4093
rtibia 29.2383
rfoot -3.0041 7.75098
rtoes 26.5564
lfemur -30.5645 4.79988 -20.3988
ltibia 52.6999
lfoot -23.0131 11.7818
ltoes -8.14744
4500
root 16.1414 18.398 14.0111 -166.721 71.4466 183.541
lowerback -7.09136 1.64202 2.8695
upperback 2.87935 1.82652 1.841
thorax 7.03345 0.995001 0.560547
lowerneck -18.2593 2.96674 4.30879
upperneck 13.736 3.57127 -3.7057
head 7.35726 1.59082 -1.50326
rclavicle 1.96797e-014 4.53229e-014
rhumerus -24.5387 -15.5441 -67.4925
rradius 27.0166
rwrist 21.4877
rhand -17.6537 25.7411
rfingers 7.12502
rthumb 8.60452 -4.06353
lclavicle 1.96797e-014 4.53229e-014
lhumerus -30.5863 -3.88819 88.6381
lradius 34.2003
lwrist 11.0484
lhand -14.2708 33.0002
lfingers 7.12502
lthumb 11.868 62.6439
rfemur -21.6444 4.55676 22.5266
rtibia 29.4894
rfoot -3.35084 7.97467
rtoes 26.6754
lfemur -31.1272 4.70953 -20.6255
ltibia 51.6103
lfoot -23.0959 11.8839
ltoes -8.55224
4501
root 16.2228 18.3884 14.0027 -166.729 71.0909 183.546
lowerback -7.06781 1.59789 2.90328
upperback 2.85167 1.76485 1.86796
thorax 6.98979 0.965498 0.560211
lowerneck -18.1911 3.01262 4.28088
upperneck 13.8643 3.66374 -3.78402
head 7.39288 1.62731 -1.51408
rclavicle -4.07509e-014 2.94201e-014
rhumerus -24.1445 -14.9496 -67.7684
rradius 27.4272
rwrist 20.83
rhand -17.9948 25.7232
rfingers 7.12502
rthumb 8.27537 -4.09473
lclavicle -4.07509e-014 2.94201e-014
lhumerus -30.5716 -3.7516 88.6748
lradius 34.3627
lwrist 11.1695
lhand -14.419 32.9764
lfingers 7.12502
lthumb 11.7251 62.6283
rfemur -21.4143 4.30588 22.6904
rtibia 29.691
rfoot -3.73492 8.2431
rtoes 26.5017
lfemur -31.6448 4.60564 -20.8141
ltibia 50.4644
lfoot -23.1866 11.9162
ltoes -8.43977
4502
root 16.304 18.3799 13.9947 -166.7 70.7197 183.589
lowerback -7.03835 1.54994 2.9336
upperback 2.81905 1.69859 1.90049
thorax 6.9371 0.933404 0.566798
lowerneck -18.0733 3.05806 4.26022
upperneck 13.942 3.75361 -3.85832
head 7.40346 1.66397 -1.52554
rclavicle -2.08724e-014 -1.03368e-014
rhumerus -23.7993 -14.2271 -68.0805
rradius 27.9344
rwrist 19.983
rhand -18.3555 25.6482
rfingers 7.12502
rthumb 7.92723 -4.18315
lclavicle -2.08724e-014 -1.03368e-014
lhumerus -30.5312 -3.61521 88.703
lradius 34.4731
lwrist 11.2476
lhand -14.5186 32.9274
lfingers 7.12502
lthumb 11.629 62.5847
rfemur -21.1563 4.03507 22.8753
rtibia 29.8337
rfoot -4.21605 8.54956
rtoes 25.7573
lfemur -32.1314 4.49494 -20.9852
ltibia 49.2627
lfoot -23.3498 11.8333
ltoes -7.66667
4503
root 16.3848 18.3734 13.987 -166.693 70.3379 183.599
lowerback -7.0084 1.50515 2.94878
upperback 2.78223 1.6387 1.92084
thorax 6.87965 0.903826 0.569841
lowerneck -17.9495 3.09167 4.23799
upperneck 13.9963 3.82159 -3.90234
head 7.40372 1.69304 -1.52947
rclavicle 2.88238e-014 7.15625e-015
rhumerus -23.508 -13.479 -68.4127
rradius 28.5371
rwrist 19.0337
rhand -18.5905 25.5477
rfingers 7.12502
rthumb 7.7004 -4.29212
lclavicle 2.88238e-014 7.15625e-015
lhumerus -30.4566 -3.50845 88.7186
lradius 34.5486
lwrist 11.2951
lhand -14.5622 32.9221
lfingers 7.12502
lthumb 11.587 62.5818
rfemur -20.8768 3.78442 23.048
rtibia 29.9143
rfoot -4.77075 8.86078
rtoes 24.5429
lfemur -32.5942 4.39313 -21.1688
ltibia 47.9969
lfoot -23.5889 11.6292
ltoes -6.45585
4504
root 16.4657 18.369 13.979 -166.743 69.9585 183.54
lowerback -6.98815 1.46564 2.93225
upperback 2.74731 1.58898 1.92541
thorax 6.82944 0.878054 0.575827
lowerneck -17.861 3.11616 4.2115
upperneck 14.0589 3.87089 -3.91352
head 7.4111 1.71551 -1.52379
rclavicle -3.45885e-014 -3.02153e-014
rhumerus -23.2587 -12.7854 -68.7446
rradius 29.2221
rwrist 18.1021
rhand -18.672 25.4803
rfingers 7.12502
rthumb 7.62173 -4.36235
lclavicle -3.45885e-014 -3.02153e-014
lhumerus -30.35 -3.43024 88.7282
lradius 34.6021
lwrist 11.3215
lhand -14.5671 32.9863
lfingers 7.12502
lthumb 11.5823 62.6463
rfemur -20.5732 3.56098 23.1908
rtibia 29.9294
rfoot -5.30033 9.1505
rtoes 23.2447
lfemur -33.0239 4.31787 -21.3881
ltibia 46.655
lfoot -23.8217 11.2982
ltoes -4.93353
4505
root 16.5477 18.3668 13.9699 -166.85 69.5998 183.424
lowerback -6.98113 1.43059 2.87831
upperback 2.72258 1.54813 1.92366
thorax 6.7969 0.855209 0.597986
lowerneck -17.8303 3.14173 4.16932
upperneck 14.1538 3.9195 -3.89806
head 7.43796 1.73844 -1.5063
rclavicle -9.93923e-015 -7.15625e-015
rhumerus -23.028 -12.1403 -69.0615
rradius 29.9607
rwrist 17.2518
rhand -18.6869 25.4813
rfingers 7.12502
rthumb 7.60738 -4.36185
lclavicle -9.93923e-015 -7.15625e-015
lhumerus -30.2176 -3.33724 88.741
lradius 34.6291
lwrist 11.3153
lhand -14.5535 33.078
lfingers 7.12502
lthumb 11.5954 62.7372
rfemur -20.2271 3.35336 23.3049
rtibia 29.871
rfoot -5.69906 9.39372
rtoes 22.3177
lfemur -33.3982 4.28799 -21.6522
ltibia 45.2295
lfoot -23.9673 10.9564
ltoes -3.51121
4506
root 16.6319 18.367 13.9591 -166.997 69.2775 183.286
lowerback -6.98282 1.40469 2.80235
upperback 2.71206 1.52087 1.9213
thorax 6.78409 0.838297 0.634234
lowerneck -17.8512 3.17208 4.1047
upperneck 14.287 3.97621 -3.86322
head 7.48571 1.76507 -1.47722
rclavicle -2.08724e-014 -1.74931e-014
rhumerus -22.813 -11.504 -69.3621
rradius 30.7279
rwrist 16.4671
rhand -18.7808 25.5428
rfingers 7.12502
rthumb 7.51674 -4.30368
lclavicle -2.08724e-014 -1.74931e-014
lhumerus -30.0697 -3.20223 88.7567
lradius 34.6174
lwrist 11.262
lhand -14.5248 33.1398
lfingers 7.12502
lthumb 11.623 62.7974
rfemur -19.813 3.15578 23.402
rtibia 29.7251
rfoot -5.91101 9.56692
rtoes 22.0478
lfemur -33.6975 4.32177 -21.9539
ltibia 43.725
lfoot -23.9834 10.8094
ltoes -3.04015
4507
root 16.7186 18.3697 13.9468 -167.135 68.9955 183.186
lowerback -6.98494 1.397 2.73657
upperback 2.71156 1.51691 1.91635
thorax 6.78289 0.833488 0.665373
lowerneck -17.8844 3.20464 4.03608
upperneck 14.4277 4.03561 -3.82162
head 7.5379 1.79318 -1.44473
rclavicle -6.57977e-014 4.77083e-015
rhumerus -22.6369 -10.8667 -69.6541
rradius 31.5165
rwrist 15.7044
rhand -19.0353 25.6343
rfingers 7.12502
rthumb 7.27111 -4.22081
lclavicle -6.57977e-014 4.77083e-015
lhumerus -29.9129 -3.05114 88.7681
lradius 34.5519
lwrist 11.1736
lhand -14.4836 33.1402
lfingers 7.12502
lthumb 11.6628 62.7956
rfemur -19.3163 2.9591 23.5053
rtibia 29.4751
rfoot -5.95307 9.67151
rtoes 22.3315
lfemur -33.9237 4.42209 -22.2665
ltibia 42.1608
lfoot -23.8292 10.9051
ltoes -3.90791
4508
root 16.8073 18.374 13.9332 -167.186 68.7398 183.193
lowerback -6.98679 1.41028 2.71705
upperback 2.71178 1.53673 1.91115
thorax 6.78396 0.842469 0.67346
lowerneck -17.891 3.23421 3.98337
upperneck 14.5366 4.08749 -3.78449
head 7.57515 1.81851 -1.41744
rclavicle 1.53064e-014 -3.33958e-014
rhumerus -22.5129 -10.2302 -69.9431
rradius 32.3263
rwrist 14.9227
rhand -19.4032 25.7269
rfingers 7.12502
rthumb 6.91591 -4.14015
lclavicle 1.53064e-014 -3.33958e-014
lhumerus -29.7519 -2.93059 88.776
lradius 34.4366
lwrist 11.0781
lhand -14.4337 33.1024
lfingers 7.12502
lthumb 11.7109 62.7551
rfemur -18.7469 2.76705 23.6444
rtibia 29.1119
rfoot -5.92105 9.71698
rtoes 22.7571
lfemur -34.106 4.57824 -22.5535
ltibia 40.5655
lfoot -23.4952 11.12
ltoes -5.75924
